<svg xmlns="http://www.w3.org/2000/svg" width="60" height="60" viewBox="0 0 60 60">
  <defs>
    <style>
      .cls-1, .cls-2 {
        fill: #fff;
      }

      .cls-1 {
        fill-rule: evenodd;
      }
    </style>
  </defs>
  <path id="icon-bind" class="cls-1" d="M33.6,38.617l-3.738-4.476L26.4,37.979A14.9,14.9,0,0,1,14.1,45C6.313,45,0,38.284,0,30S6.313,15,14.1,15c4.951,0,9.784,2.277,12.3,6.383l3.738,4.476L33.6,22.021A14.9,14.9,0,0,1,45.9,15C53.687,15,60,21.716,60,30S53.687,45,45.9,45C40.95,45,36.116,42.723,33.6,38.617ZM22.029,24.683a8.657,8.657,0,0,0-7.468-3.938C9.833,20.745,6,24.888,6,30s3.833,9.255,8.561,9.255a9.021,9.021,0,0,0,7.468-4.332L26.4,30ZM54,30c0-5.112-3.833-9.255-8.561-9.255a9.021,9.021,0,0,0-7.468,4.332L33.6,30l4.37,5.317a8.657,8.657,0,0,0,7.468,3.938C50.167,39.255,54,35.112,54,30Z"/>
  <circle id="icon-ringc" class="cls-2" cx="15" cy="30" r="4"/>
</svg>
