<svg xmlns="http://www.w3.org/2000/svg" width="200" height="50" viewBox="0 0 200 50">
  <defs>
    <style>
      .cls-1, .cls-2 {
        fill: #1b10ff;
      }

      .cls-1, .cls-5 {
        fill-rule: evenodd;
      }

      .cls-3 {
        fill: #7865ff;
      }

      .cls-4 {
        fill: #fff;
      }

      .cls-5 {
        opacity: 0.15;
      }
    </style>
  </defs>
  <path id="micron.js" class="cls-1" d="M61.047,33.652h1.5a0.756,0.756,0,0,0,.782-0.782V23.316A5.32,5.32,0,0,1,64.5,19.474a3.8,3.8,0,0,1,2.805-1.19,3.92,3.92,0,0,1,2.907,1.19,5.376,5.376,0,0,1,1.173,3.876v9.52a0.756,0.756,0,0,0,.782.782h1.5a0.756,0.756,0,0,0,.782-0.782V23.35a5.385,5.385,0,0,1,1.173-3.859,3.776,3.776,0,0,1,2.805-1.207,3.9,3.9,0,0,1,2.958,1.173A5.53,5.53,0,0,1,82.5,23.35v9.52a0.756,0.756,0,0,0,.782.782h1.462a0.756,0.756,0,0,0,.782-0.782V23.044a7.812,7.812,0,0,0-1.768-5.508,5.938,5.938,0,0,0-4.556-1.9,6.789,6.789,0,0,0-3.383.85,6,6,0,0,0-2.329,2.278,5.463,5.463,0,0,0-5.3-3.128,6.041,6.041,0,0,0-4.964,2.278V16.754a0.8,0.8,0,0,0-.2-0.561,0.706,0.706,0,0,0-.544-0.221H61.047a0.756,0.756,0,0,0-.782.782V32.87a0.756,0.756,0,0,0,.782.782h0ZM90.966,12.64h2.006a0.818,0.818,0,0,0,.578-0.221,0.732,0.732,0,0,0,.238-0.561V10.09a0.813,0.813,0,0,0-.816-0.816H90.966a0.733,0.733,0,0,0-.561.238,0.818,0.818,0,0,0-.221.578v1.768a0.756,0.756,0,0,0,.782.782h0Zm0.272,21.012h1.5a0.756,0.756,0,0,0,.782-0.782V16.754a0.756,0.756,0,0,0-.782-0.782h-1.5a0.756,0.756,0,0,0-.782.782V32.87a0.756,0.756,0,0,0,.782.782h0Zm14.45,0.34a8.8,8.8,0,0,0,4.131-.884,6.487,6.487,0,0,0,2.516-2.176,5.234,5.234,0,0,0,.9-2.55,0.626,0.626,0,0,0-.221-0.544,0.807,0.807,0,0,0-.561-0.238h-1.5a0.74,0.74,0,0,0-.51.153,1.586,1.586,0,0,0-.34.561,4.624,4.624,0,0,1-1.666,2.363,4.844,4.844,0,0,1-2.72.7,4.463,4.463,0,0,1-3.4-1.326A6.037,6.037,0,0,1,100.962,26l-0.034-1.19,0.034-1.19a6.038,6.038,0,0,1,1.36-4.046,4.463,4.463,0,0,1,3.4-1.326,4.865,4.865,0,0,1,2.7.7,4.581,4.581,0,0,1,1.683,2.363,1.586,1.586,0,0,0,.34.561,0.74,0.74,0,0,0,.51.153h1.5a0.8,0.8,0,0,0,.561-0.238,0.625,0.625,0,0,0,.221-0.544,5.275,5.275,0,0,0-.9-2.584,6.371,6.371,0,0,0-2.516-2.159,8.945,8.945,0,0,0-4.131-.867,7.638,7.638,0,0,0-5.678,2.057,8.168,8.168,0,0,0-2.142,5.763l-0.034,1.36,0.034,1.36a8.166,8.166,0,0,0,2.142,5.763,7.636,7.636,0,0,0,5.678,2.057h0Zm12.41-.34h1.53a0.819,0.819,0,0,0,.578-0.221,0.734,0.734,0,0,0,.238-0.561V22.84a4.034,4.034,0,0,1,1.071-2.958,3.939,3.939,0,0,1,2.941-1.088h1.938a0.747,0.747,0,0,0,.578-0.221,0.794,0.794,0,0,0,.2-0.561V16.754a0.71,0.71,0,0,0-.782-0.782h-1.326a5.072,5.072,0,0,0-4.726,2.312v-1.5a0.762,0.762,0,0,0-.816-0.816H118.1a0.733,0.733,0,0,0-.561.238,0.817,0.817,0,0,0-.221.578V32.87a0.756,0.756,0,0,0,.782.782h0Zm18.836,0.34a7.613,7.613,0,0,0,5.763-2.108,8.254,8.254,0,0,0,2.159-5.61q0.068-.747.068-1.462t-0.068-1.462a8.172,8.172,0,0,0-2.193-5.61,8.839,8.839,0,0,0-11.458,0,8.163,8.163,0,0,0-2.193,5.61l-0.034,1.462,0.034,1.462a8.245,8.245,0,0,0,2.159,5.61,7.61,7.61,0,0,0,5.763,2.108h0Zm0-2.55a4.473,4.473,0,0,1-3.451-1.377,5.988,5.988,0,0,1-1.377-3.961l-0.034-1.292,0.034-1.292a5.99,5.99,0,0,1,1.377-3.961,5.013,5.013,0,0,1,6.9,0,5.99,5.99,0,0,1,1.377,3.961q0.033,0.34.034,1.292T141.762,26.1a5.988,5.988,0,0,1-1.377,3.961,4.475,4.475,0,0,1-3.451,1.377h0Zm13.055,2.21h1.564a0.756,0.756,0,0,0,.782-0.782V23.452a5.323,5.323,0,0,1,1.292-3.791,4.527,4.527,0,0,1,3.468-1.377,4.277,4.277,0,0,1,3.4,1.36,5.6,5.6,0,0,1,1.19,3.808V32.87a0.756,0.756,0,0,0,.782.782h1.564a0.756,0.756,0,0,0,.782-0.782V23.248a8.169,8.169,0,0,0-1.8-5.525,6.327,6.327,0,0,0-5.066-2.091,7.377,7.377,0,0,0-3.349.68,7.257,7.257,0,0,0-2.363,1.938v-1.5a0.71,0.71,0,0,0-.782-0.782h-1.462a0.756,0.756,0,0,0-.782.782V32.87a0.756,0.756,0,0,0,.782.782h0Zm20.3,0h2.346a0.756,0.756,0,0,0,.782-0.782V30.524a0.821,0.821,0,0,0-.221-0.578,0.736,0.736,0,0,0-.561-0.238h-2.346a0.733,0.733,0,0,0-.561.238,0.817,0.817,0,0,0-.221.578V32.87a0.756,0.756,0,0,0,.782.782h0Zm8.4-21.012h2.108a0.756,0.756,0,0,0,.782-0.782V10.09a0.821,0.821,0,0,0-.221-0.578,0.732,0.732,0,0,0-.561-0.238h-2.108a0.732,0.732,0,0,0-.561.238,0.821,0.821,0,0,0-.221.578v1.768a0.756,0.756,0,0,0,.782.782h0Zm-3.74,27.472h0.646q5.712,0,5.712-5.984V16.754a0.756,0.756,0,0,0-.782-0.782h-1.53a0.794,0.794,0,0,0-.561.2,0.749,0.749,0,0,0-.221.578v17.34a4.689,4.689,0,0,1-.561,2.533,2.467,2.467,0,0,1-2.227.867h-0.476a0.7,0.7,0,0,0-.748.748V39.33a0.8,0.8,0,0,0,.2.561,0.706,0.706,0,0,0,.544.221h0Zm17.544-6.12a10.274,10.274,0,0,0,3.927-.68,5.467,5.467,0,0,0,2.482-1.87,4.52,4.52,0,0,0,.833-2.652,4.23,4.23,0,0,0-1.343-3.23,9.672,9.672,0,0,0-4.573-1.938,20.048,20.048,0,0,1-3.128-.867,3.354,3.354,0,0,1-1.428-.918,1.94,1.94,0,0,1-.374-1.207,2.243,2.243,0,0,1,.884-1.853,4.044,4.044,0,0,1,2.55-.7,5.867,5.867,0,0,1,1.87.255,3.229,3.229,0,0,1,1.139.612q0.391,0.357.969,1a0.713,0.713,0,0,0,.68.374h1.292a0.75,0.75,0,0,0,.527-0.2,0.666,0.666,0,0,0,.221-0.51,2.806,2.806,0,0,0-.765-1.6,6.324,6.324,0,0,0-2.278-1.666,8.512,8.512,0,0,0-3.655-.714,7.867,7.867,0,0,0-3.519.731,5.388,5.388,0,0,0-2.227,1.9,4.459,4.459,0,0,0-.748,2.431,4.279,4.279,0,0,0,1.224,3.162,8.467,8.467,0,0,0,4.182,1.87,26.553,26.553,0,0,1,3.281.884,4.108,4.108,0,0,1,1.581.918,1.915,1.915,0,0,1,.476,1.36,2.179,2.179,0,0,1-1.1,1.972,5.563,5.563,0,0,1-2.941.68,5.312,5.312,0,0,1-2.6-.544,6.179,6.179,0,0,1-1.751-1.5,1.5,1.5,0,0,0-.323-0.306,0.653,0.653,0,0,0-.323-0.068H186.1a0.814,0.814,0,0,0-.51.187,0.632,0.632,0,0,0-.238.527,2.915,2.915,0,0,0,.782,1.632,6.6,6.6,0,0,0,2.4,1.751,9.213,9.213,0,0,0,3.961.765h0Z"/>
  <circle id="Base" class="cls-2" cx="25" cy="25" r="25"/>
  <circle id="Cheese" class="cls-3" cx="25.219" cy="25.219" r="15.5"/>
  <circle id="Topping" class="cls-4" cx="25" cy="25" r="7"/>
  <path id="Overlay" class="cls-5" d="M7.322,42.678A25,25,0,1,1,42.678,7.322Z"/>
</svg>
